<svg width="27" height="29" viewBox="0 0 27 29" fill="none" xmlns="http://www.w3.org/2000/svg">
<path fill-rule="evenodd" clip-rule="evenodd" d="M15.4556 18.9847C17.0265 18.9847 18.3051 20.2542 18.3051 21.8147V25.8281C18.3051 26.1634 18.5739 26.4322 18.9184 26.44H21.4052C23.3649 26.44 24.958 24.8665 24.958 22.9329V11.5503C24.9489 10.8849 24.6318 10.2586 24.0877 9.84242L15.4856 2.9821C14.3309 2.06748 12.7156 2.06748 11.557 2.98471L3.0136 9.83981C2.44865 10.2691 2.1316 10.8953 2.12508 11.5725V22.9329C2.12508 24.8665 3.71816 26.44 5.67788 26.44H8.18819C8.54178 26.44 8.82882 26.1595 8.82882 25.815C8.82882 25.7393 8.83795 25.6637 8.85361 25.5919V21.8147C8.85361 20.2634 10.1244 18.9952 11.6836 18.9847H15.4556ZM21.4052 28.3971H18.8949C17.4571 28.3632 16.348 27.2346 16.348 25.8281V21.8147C16.348 21.3332 15.9475 20.9418 15.4556 20.9418H11.6901C11.2087 20.9444 10.8107 21.3372 10.8107 21.8147V25.815C10.8107 25.9129 10.7977 26.0068 10.7703 26.0955C10.6294 27.3872 9.52555 28.3971 8.18819 28.3971H5.67788C2.63914 28.3971 0.167969 25.9455 0.167969 22.9329V11.5634C0.181016 10.2665 0.778586 9.07914 1.81063 8.29761L10.3371 1.45426C12.2146 -0.033145 14.8306 -0.033145 16.7042 1.45165L25.292 8.30152C26.3006 9.07001 26.8981 10.2547 26.9151 11.536V22.9329C26.9151 25.9455 24.4439 28.3971 21.4052 28.3971Z" fill="white"/>
</svg>
