<svg width="25" height="25" viewBox="0 0 25 25" fill="none" xmlns="http://www.w3.org/2000/svg">
<path d="M20.0869 2.7561H4.08691C2.98234 2.7561 2.08691 3.65153 2.08691 4.7561V8.7561C2.08691 9.86067 2.98234 10.7561 4.08691 10.7561H20.0869C21.1915 10.7561 22.0869 9.86067 22.0869 8.7561V4.7561C22.0869 3.65153 21.1915 2.7561 20.0869 2.7561Z" stroke="white" stroke-width="2" stroke-linecap="round" stroke-linejoin="round"/>
<path d="M20.0869 14.7561H4.08691C2.98234 14.7561 2.08691 15.6515 2.08691 16.7561V20.7561C2.08691 21.8607 2.98234 22.7561 4.08691 22.7561H20.0869C21.1915 22.7561 22.0869 21.8607 22.0869 20.7561V16.7561C22.0869 15.6515 21.1915 14.7561 20.0869 14.7561Z" stroke="white" stroke-width="2" stroke-linecap="round" stroke-linejoin="round"/>
<path d="M6.08691 6.7561H6.09691" stroke="white" stroke-width="2" stroke-linecap="round" stroke-linejoin="round"/>
<path d="M6.08691 18.7561H6.09691" stroke="white" stroke-width="2" stroke-linecap="round" stroke-linejoin="round"/>
</svg>
