<svg width="47" height="48" viewBox="0 0 47 48" fill="none" xmlns="http://www.w3.org/2000/svg">
<path fill-rule="evenodd" clip-rule="evenodd" d="M33.7829 0.736145C41.6408 0.736145 46.9205 6.25201 46.9205 14.4608V33.5908C46.9205 41.7996 41.6408 47.3155 33.7829 47.3155H13.4787C5.62083 47.3155 0.34111 41.7996 0.34111 33.5908V14.4608C0.34111 6.25201 5.62083 0.736145 13.4787 0.736145H33.7829ZM33.7829 3.98587H13.4787C7.47317 3.98587 3.59083 8.09568 3.59083 14.4608V33.5908C3.59083 39.956 7.47317 44.0658 13.4787 44.0658H33.7829C39.7906 44.0658 43.6707 39.956 43.6707 33.5908V14.4608C43.6707 8.09568 39.7906 3.98587 33.7829 3.98587ZM23.6308 14.4441C24.5277 14.4441 25.2557 15.1721 25.2557 16.069V22.3793L31.5742 22.3797C32.4711 22.3797 33.1991 23.1077 33.1991 24.0046C33.1991 24.9015 32.4711 25.6295 31.5742 25.6295L25.2557 25.629V31.9428C25.2557 32.8397 24.5277 33.5677 23.6308 33.5677C22.7339 33.5677 22.0059 32.8397 22.0059 31.9428V25.629L15.6874 25.6295C14.7883 25.6295 14.0625 24.9015 14.0625 24.0046C14.0625 23.1077 14.7883 22.3797 15.6874 22.3797L22.0059 22.3793V16.069C22.0059 15.1721 22.7339 14.4441 23.6308 14.4441Z" fill="black"/>
</svg>
