<svg width="14" height="15" viewBox="0 0 14 15" fill="none" xmlns="http://www.w3.org/2000/svg">
<path d="M1.52173 3.54742H2.78221H12.8661" stroke="#FF0000" stroke-width="1.2" stroke-linecap="round" stroke-linejoin="round"/>
<path d="M11.6056 3.54739V12.3708C11.6056 12.7051 11.4728 13.0257 11.2364 13.2621C11 13.4984 10.6794 13.6312 10.3451 13.6312H4.04269C3.70839 13.6312 3.38778 13.4984 3.1514 13.2621C2.91501 13.0257 2.78221 12.7051 2.78221 12.3708V3.54739M4.67293 3.54739V2.28691C4.67293 1.95261 4.80573 1.632 5.04212 1.39561C5.2785 1.15923 5.59911 1.02643 5.93341 1.02643H8.45437C8.78868 1.02643 9.10928 1.15923 9.34567 1.39561C9.58206 1.632 9.71486 1.95261 9.71486 2.28691V3.54739" stroke="#FF0000" stroke-width="1.2" stroke-linecap="round" stroke-linejoin="round"/>
<path d="M5.93341 6.69861V10.4801" stroke="#FF0000" stroke-width="1.2" stroke-linecap="round" stroke-linejoin="round"/>
<path d="M8.45438 6.69861V10.4801" stroke="#FF0000" stroke-width="1.2" stroke-linecap="round" stroke-linejoin="round"/>
</svg>
