<svg width="41" height="41" viewBox="0 0 41 41" fill="none" xmlns="http://www.w3.org/2000/svg">
<path fill-rule="evenodd" clip-rule="evenodd" d="M18.7248 0.221726C19.5528 0.221726 20.2248 0.893726 20.2248 1.72173C20.2248 2.54973 19.5528 3.22173 18.7248 3.22173H11.2468C6.07875 3.22173 2.74075 6.76173 2.74075 12.2397V28.8677C2.74075 34.3457 6.07875 37.8857 11.2468 37.8857H28.8948C34.0628 37.8857 37.4028 34.3457 37.4028 28.8677V20.8117C37.4028 19.9837 38.0748 19.3117 38.9028 19.3117C39.7308 19.3117 40.4028 19.9837 40.4028 20.8117V28.8677C40.4028 36.0557 35.7768 40.8857 28.8948 40.8857H11.2468C4.36475 40.8857 -0.259247 36.0557 -0.259247 28.8677V12.2397C-0.259247 5.05173 4.36475 0.221726 11.2468 0.221726H18.7248ZM36.144 1.97893L38.578 4.41293C39.764 5.59693 40.416 7.17093 40.414 8.84693C40.414 10.5229 39.762 12.0949 38.578 13.2769L23.56 28.2949C22.458 29.3969 20.99 30.0049 19.43 30.0049H11.938C11.534 30.0049 11.146 29.8409 10.864 29.5509C10.582 29.2629 10.428 28.8729 10.438 28.4669L10.626 20.9089C10.664 19.4049 11.27 17.9909 12.334 16.9249L27.282 1.97893C29.726 -0.461074 33.7 -0.461074 36.144 1.97893ZM26.0508 7.45093L14.456 19.0469C13.938 19.5649 13.644 20.2529 13.626 20.9829L13.476 27.0049H19.43C20.19 27.0049 20.902 26.7109 21.44 26.1729L33.1048 14.5049L26.0508 7.45093ZM29.402 4.10093L28.1708 5.32893L35.2248 12.3849L36.458 11.1549C37.074 10.5389 37.414 9.71893 37.414 8.84693C37.414 7.97293 37.074 7.15093 36.458 6.53493L34.024 4.10093C32.75 2.83093 30.678 2.83093 29.402 4.10093Z" fill="black"/>
</svg>
